<svg width="32" height="24" viewBox="0 0 32 24" fill="none" xmlns="http://www.w3.org/2000/svg">
<path d="M27.3333 3.5C27.3333 3.5 24.0849 0.957102 20.25 0.666702L19.9043 1.3587C23.3709 2.208 24.9618 3.4221 26.625 4.9167C23.7584 3.4533 20.93 2.0833 16 2.0833C11.07 2.0833 8.2416 3.4533 5.375 4.9167C7.0382 3.4221 8.9308 2.072 12.0957 1.3587L11.75 0.666702C7.7267 1.0456 4.6667 3.5 4.6667 3.5C4.6667 3.5 1.0393 8.7601 0.416702 19.0833C4.0717 23.3 9.625 23.3333 9.625 23.3333L10.7867 21.7863C8.8147 21.1007 6.5905 19.8774 4.6667 17.6667C6.9603 19.4021 10.4219 21.2083 16 21.2083C21.5781 21.2083 25.0398 19.4021 27.3333 17.6667C25.4102 19.8774 23.186 21.1007 21.2133 21.7863L22.375 23.3333C22.375 23.3333 27.9283 23.3 31.5833 19.0833C30.9607 8.7601 27.3333 3.5 27.3333 3.5ZM11.3958 16.25C10.0259 16.25 8.9167 14.9821 8.9167 13.4167C8.9167 11.8512 10.0259 10.5833 11.3958 10.5833C12.7658 10.5833 13.875 11.8512 13.875 13.4167C13.875 14.9821 12.7658 16.25 11.3958 16.25ZM20.6042 16.25C19.2343 16.25 18.125 14.9821 18.125 13.4167C18.125 11.8512 19.2343 10.5833 20.6042 10.5833C21.9741 10.5833 23.0833 11.8512 23.0833 13.4167C23.0833 14.9821 21.9741 16.25 20.6042 16.25Z" fill="white"/>
</svg>
